<svg width="191" height="191" viewBox="0 0 191 191" fill="none" xmlns="http://www.w3.org/2000/svg">
<mask id="mask0_102_31" style="mask-type:alpha" maskUnits="userSpaceOnUse" x="0" y="0" width="191" height="191">
<path d="M95.5 0C148.243 0 191 42.5329 191 95C191 146.507 149.794 188.437 98.3857 189.955C97.4943 190.003 96.5981 190.028 95.6982 190.026L94.8232 190.018C94.4471 190.01 94.0719 189.996 93.6973 189.98C41.786 189.024 0 146.868 0 95C0 42.5329 42.7568 0 95.5 0ZM107.596 162.238C105.878 162.39 104.146 162.509 102.4 162.594C101.649 169.83 100.78 175.881 99.8262 180.438C100.077 180.089 100.337 179.706 100.606 179.286C103.042 175.484 105.45 169.747 107.596 162.238ZM83.7979 162.218C85.9242 169.727 88.3171 175.468 90.7422 179.274C90.9635 179.622 91.1799 179.943 91.3887 180.241C90.4612 175.704 89.6199 169.717 88.8965 162.576C87.184 162.488 85.484 162.37 83.7979 162.218ZM68.9844 160.014C73.6178 169.588 78.878 176.171 84.2168 179.984C81.6623 175.244 79.3526 168.966 77.3779 161.478C74.5324 161.078 71.7325 160.59 68.9844 160.014ZM121.976 160.153C119.367 160.685 116.713 161.139 114.019 161.512C112.092 168.746 109.858 174.85 107.394 179.526C112.5 175.674 117.52 169.281 121.976 160.153ZM141.679 154.353C137.74 155.904 133.63 157.262 129.374 158.408C125.927 166.419 121.841 173.202 117.282 178.405C125.24 174.103 132.537 167.438 138.724 158.782C139.743 157.356 140.727 155.878 141.679 154.353ZM49.8555 154.312C50.7886 155.813 51.7547 157.268 52.7539 158.674C58.6815 167.011 65.64 173.511 73.2305 177.842C68.8425 172.675 64.9089 166.027 61.584 158.223C57.5328 157.106 53.6161 155.797 49.8555 154.312ZM11.8496 126.712C20.7658 149.954 39.1976 168.532 62.4199 177.723C53.8035 170.864 46.3677 161.43 40.6436 150.165C28.6768 144.066 18.7807 136.035 11.8496 126.712ZM178.474 128.419C171.611 137.039 162.172 144.479 150.902 150.209C145.287 161.22 138.038 170.478 129.653 177.289C151.802 168.189 169.468 150.507 178.474 128.419ZM94.9463 162.751C95.1692 164.898 95.4015 166.92 95.6416 168.811C95.8865 166.92 96.1222 164.899 96.3506 162.753C96.1734 162.754 95.9958 162.756 95.8184 162.756L94.9463 162.751ZM98.1084 140.472C97.2686 140.482 96.4261 140.489 95.5811 140.489C94.8002 140.489 94.0214 140.483 93.2451 140.474C93.564 146.314 93.9468 151.766 94.3789 156.746C94.8577 156.751 95.3376 156.756 95.8184 156.756C96.1906 156.756 96.5625 156.753 96.9336 156.75C97.3785 151.768 97.7747 146.314 98.1084 140.472ZM112.297 139.786C109.611 140.014 106.887 140.185 104.128 140.303C103.801 146.114 103.411 151.559 102.974 156.557C105.073 156.44 107.151 156.272 109.205 156.056C110.381 151.098 111.42 145.646 112.297 139.786ZM79.1611 139.81C80.0218 145.65 81.0454 151.086 82.2051 156.031C84.2268 156.248 86.2722 156.417 88.3389 156.537C87.9148 151.547 87.5398 146.112 87.2275 140.312C84.5042 140.198 81.8138 140.031 79.1611 139.81ZM130.056 137.398C126.298 138.099 122.424 138.688 118.452 139.158C117.632 144.882 116.659 150.261 115.554 155.22C118.767 154.711 121.912 154.082 124.979 153.339C126.917 148.461 128.623 143.12 130.056 137.398ZM61.0166 137.383C62.4228 143.046 64.0957 148.338 65.999 153.177C69.202 153.973 72.4922 154.644 75.8584 155.184C74.7698 150.245 73.8147 144.89 73.0107 139.193C68.9015 138.714 64.8969 138.109 61.0166 137.383ZM152.027 131.59C147.199 133.301 142.02 134.797 136.552 136.051C135.305 141.457 133.822 146.579 132.129 151.359C137.168 149.784 141.951 147.894 146.43 145.729C148.577 141.299 150.456 136.57 152.027 131.59ZM39.6152 131.76C41.1645 136.662 43.0128 141.32 45.1221 145.688C49.4301 147.775 54.0205 149.609 58.8496 151.151C57.1942 146.425 55.7434 141.366 54.5244 136.031C49.2684 134.823 44.2805 133.391 39.6152 131.76ZM179.114 116.674C173.919 121.258 167.125 125.366 159.091 128.827C157.947 133.033 156.596 137.096 155.056 140.991C156.583 140.042 158.062 139.059 159.49 138.041C168.136 131.878 174.801 124.607 179.114 116.674ZM12.958 117.458C17.279 125.086 23.7864 132.082 32.1465 138.041C33.55 139.042 35.0036 140.009 36.5029 140.943C35.0016 137.128 33.6839 133.152 32.5625 129.039C24.7771 125.731 18.1363 121.819 12.958 117.458ZM92.4482 120.646C92.5786 125.423 92.7459 130.041 92.9473 134.47C93.8218 134.481 94.6999 134.489 95.5811 134.489C96.5318 134.489 97.4788 134.479 98.4219 134.466C98.6343 130.039 98.8128 125.423 98.9551 120.648C97.9014 120.658 96.8434 120.665 95.7812 120.665L93.3301 120.656C93.0359 120.654 92.7418 120.649 92.4482 120.646ZM77.0166 120.163C77.3648 124.848 77.8091 129.376 78.3398 133.714C81.1571 133.969 84.0236 134.164 86.9336 134.294C86.7357 129.88 86.5703 125.285 86.4424 120.541C83.2515 120.457 80.107 120.33 77.0166 120.163ZM114.483 120.166C111.362 120.334 108.185 120.461 104.961 120.545C104.821 125.285 104.645 129.875 104.437 134.285C107.382 134.151 110.282 133.949 113.132 133.686C113.671 129.357 114.125 124.84 114.483 120.166ZM57.543 118.498C58.0805 122.803 58.7608 126.974 59.5742 130.987C63.6358 131.816 67.8593 132.51 72.2197 133.056C71.7194 128.785 71.3022 124.35 70.9746 119.778C66.348 119.441 61.8612 119.012 57.543 118.498ZM133.564 118.551C129.368 119.043 125.014 119.456 120.528 119.782C120.191 124.338 119.766 128.758 119.258 133.015C123.479 132.478 127.57 131.806 131.51 131.004C132.33 127.002 133.018 122.843 133.564 118.551ZM155.959 114.854C150.944 115.966 145.5 116.94 139.705 117.759C139.226 121.799 138.626 125.738 137.908 129.557C143.7 128.114 149.101 126.391 154.029 124.431C154.792 121.317 155.438 118.121 155.959 114.854ZM35.6533 114.865C36.1801 118.195 36.8372 121.45 37.6152 124.62C42.3919 126.494 47.6056 128.146 53.1816 129.538C52.4694 125.705 51.8758 121.751 51.4043 117.694C45.7975 116.892 40.5237 115.943 35.6533 114.865ZM10.7051 106.417C14.5569 111.758 21.1788 117.02 30.7939 121.654C30.2308 118.933 29.7532 116.161 29.3633 113.345C21.7993 111.345 15.4687 109.004 10.7051 106.417ZM180.198 106.769C175.528 109.21 169.449 111.422 162.253 113.328C161.871 116.068 161.405 118.766 160.858 121.416C170 116.942 176.38 111.898 180.198 106.769ZM95.7344 104.597C94.5364 104.597 93.3434 104.591 92.1562 104.587C92.1869 107.998 92.2372 111.354 92.3037 114.645C93.4572 114.656 94.6166 114.665 95.7812 114.665C96.8973 114.665 98.0084 114.657 99.1143 114.646C99.189 111.355 99.2479 107.999 99.2871 104.587C98.1082 104.591 96.9239 104.597 95.7344 104.597ZM115.305 104.391C112.025 104.46 108.683 104.514 105.288 104.548C105.25 107.934 105.192 111.267 105.118 114.539C108.432 114.45 111.692 114.314 114.888 114.135C115.071 110.947 115.212 107.696 115.305 104.391ZM76.2344 104.393C76.3196 107.696 76.4524 110.946 76.6279 114.132C79.7922 114.31 83.0191 114.447 86.2998 114.536C86.2346 111.265 86.1863 107.933 86.1562 104.548C82.7942 104.514 79.4838 104.461 76.2344 104.393ZM134.835 103.743C130.491 103.942 125.973 104.11 121.311 104.241C121.223 107.457 121.092 110.625 120.92 113.738C125.52 113.391 129.968 112.952 134.234 112.429C134.498 109.582 134.7 106.685 134.835 103.743ZM56.3076 103.729C56.4359 106.656 56.63 109.54 56.8857 112.374C61.2727 112.919 65.8541 113.376 70.5977 113.734C70.4331 110.623 70.3096 107.456 70.2295 104.243C65.4247 104.108 60.7734 103.935 56.3076 103.729ZM157.309 102.299C152.253 102.735 146.741 103.121 140.854 103.443C140.735 106.2 140.562 108.923 140.333 111.606C146.268 110.731 151.787 109.69 156.802 108.508C157.02 106.461 157.19 104.391 157.309 102.299ZM34.3193 102.312C34.4359 104.405 34.6017 106.475 34.8174 108.521C39.6924 109.669 45.044 110.683 50.7891 111.541C50.5677 108.873 50.4023 106.166 50.29 103.426C44.5865 103.111 39.2378 102.735 34.3193 102.312ZM10.4287 99.2119C10.7567 99.4449 11.1142 99.6866 11.5039 99.9355C15.3216 102.374 21.0872 104.783 28.6348 106.925C28.4838 105.214 28.3664 103.488 28.2812 101.75C21.054 101.012 15.001 100.155 10.4287 99.2119ZM181.17 99.1855C176.616 100.132 170.572 100.992 163.347 101.733C163.26 103.472 163.139 105.197 162.986 106.908C170.505 104.771 176.251 102.368 180.059 99.9355C180.463 99.6773 180.832 99.4266 181.17 99.1855ZM92.1338 91.377C92.1277 92.5716 92.1216 93.7725 92.1201 94.9785C92.1186 96.1869 92.122 97.3899 92.125 98.5869C93.3223 98.5915 94.5257 98.5967 95.7344 98.5967C96.9398 98.5967 98.1398 98.5914 99.334 98.5869C99.34 97.3928 99.3471 96.1928 99.3486 94.9873C99.3502 93.7782 99.3468 92.5746 99.3438 91.377C98.1464 91.3724 96.9431 91.3682 95.7344 91.3682C94.5287 91.3682 93.3282 91.3724 92.1338 91.377ZM86.1328 91.417C82.7447 91.4516 79.4111 91.5053 76.1416 91.5752C76.1292 92.7041 76.1206 93.8389 76.1191 94.9785C76.1177 96.1205 76.1242 97.2574 76.1338 98.3887C79.4033 98.4586 82.7369 98.5132 86.125 98.5479C86.122 97.3609 86.1186 96.1684 86.1201 94.9707C86.1216 93.7809 86.1269 92.5962 86.1328 91.417ZM105.349 94.9951C105.347 96.1846 105.341 97.369 105.335 98.5479C108.755 98.5129 112.12 98.4576 115.42 98.3867C115.432 97.2723 115.441 96.1521 115.442 95.0273C115.444 93.8718 115.438 92.7217 115.428 91.5771C112.129 91.5062 108.764 91.452 105.344 91.417C105.347 92.6042 105.35 93.7972 105.349 94.9951ZM70.1406 91.7266C65.3022 91.8643 60.6253 92.0389 56.1436 92.249C56.1298 93.1552 56.1213 94.0652 56.1201 94.9785C56.119 95.8938 56.1262 96.8057 56.1377 97.7139C60.6185 97.924 65.2944 98.0996 70.1318 98.2373C70.1233 97.1529 70.1178 96.064 70.1191 94.9707L70.1318 92.5195C70.134 92.2549 70.1379 91.9906 70.1406 91.7266ZM121.429 91.7295C121.437 92.8268 121.444 93.9287 121.442 95.0352C121.441 96.1061 121.434 97.173 121.423 98.2354C126.117 98.1012 130.66 97.931 135.019 97.7285C135.032 96.8484 135.041 95.9649 135.042 95.0781C135.043 94.1268 135.035 93.1789 135.022 92.2354C130.664 92.0329 126.123 91.8637 121.429 91.7295ZM141.028 92.54C141.038 93.3856 141.043 94.234 141.042 95.085C141.041 95.867 141.033 96.6473 141.023 97.4248C146.945 97.0959 152.47 96.7027 157.511 96.2588C157.514 95.8844 157.517 95.5094 157.518 95.1338C157.518 94.6569 157.514 94.181 157.51 93.7061C152.47 93.2623 146.948 92.8689 141.028 92.54ZM50.1367 92.5576C44.3978 92.8792 39.0346 93.2613 34.127 93.6914C34.1222 94.1195 34.1197 94.5488 34.1191 94.9785C34.1186 95.4109 34.1203 95.8426 34.124 96.2734C39.0308 96.7035 44.393 97.0846 50.1309 97.4062C50.1221 96.5969 50.1191 95.785 50.1201 94.9707C50.1211 94.164 50.1261 93.3595 50.1367 92.5576ZM28.123 94.2637C25.9177 94.4944 23.843 94.734 21.9062 94.9824C23.8424 95.2308 25.9165 95.4696 28.1211 95.7002C28.1201 95.4572 28.1188 95.2141 28.1191 94.9707L28.123 94.2637ZM163.518 95.1416C163.517 95.3221 163.515 95.5024 163.514 95.6826C165.656 95.4573 167.675 95.2245 169.562 94.9824C167.675 94.7403 165.657 94.5066 163.515 94.2812C163.516 94.5677 163.518 94.8546 163.518 95.1416ZM162.993 83.1006C163.144 84.7974 163.262 86.5081 163.348 88.2314C170.529 88.9685 176.544 89.8227 181.088 90.7627C180.772 90.5397 180.43 90.3088 180.059 90.0713C176.252 87.6395 170.509 85.2377 162.993 83.1006ZM28.6611 83.0732C21.1004 85.2168 15.3261 87.6296 11.5039 90.0713C11.147 90.2993 10.8167 90.5207 10.5117 90.7354C15.0776 89.7983 21.107 88.947 28.2979 88.2129C28.3866 86.4865 28.5075 84.7729 28.6611 83.0732ZM140.362 78.4023C140.585 81.0716 140.752 83.7793 140.866 86.5205C146.749 86.8428 152.258 87.2291 157.31 87.665C157.192 85.5874 157.024 83.5314 156.809 81.499C151.801 80.3185 146.288 79.2769 140.362 78.4023ZM50.8271 78.459C45.0796 79.3165 39.7253 80.3308 34.8477 81.4775C34.6287 83.5117 34.458 85.5698 34.3369 87.6494C39.2564 87.227 44.6061 86.8522 50.3105 86.5371C50.4289 83.8096 50.6009 81.1153 50.8271 78.459ZM70.6416 76.2676C65.8968 76.6255 61.3141 77.0814 56.9258 77.626C56.6646 80.448 56.4641 83.3198 56.3291 86.2354C60.7955 86.0289 65.4475 85.8559 70.2529 85.7207C70.3406 82.5205 70.4704 79.3668 70.6416 76.2676ZM120.964 76.2715C121.128 79.3704 121.251 82.5238 121.331 85.7236C125.991 85.8554 130.507 86.0228 134.849 86.2217C134.719 83.2951 134.523 80.4126 134.266 77.5801C130.004 77.0573 125.56 76.6188 120.964 76.2715ZM105.169 75.4678C105.234 78.7257 105.282 82.0449 105.312 85.416C108.706 85.4504 112.047 85.5036 115.326 85.5732C115.241 82.2832 115.108 79.0472 114.934 75.874C111.739 75.694 108.482 75.5571 105.169 75.4678ZM86.3486 75.4688C83.0667 75.5577 79.8385 75.6931 76.6729 75.8711C76.4904 79.0445 76.3509 82.2808 76.2578 85.5713C79.5073 85.5027 82.8176 85.45 86.1797 85.416C86.218 82.0452 86.2757 78.7263 86.3486 75.4688ZM95.7812 75.3418C94.6331 75.3418 93.4899 75.3483 92.3525 75.3594C92.2782 78.6373 92.2197 81.9797 92.1807 85.377C93.3598 85.3726 94.5446 85.3682 95.7344 85.3682C96.9321 85.3682 98.1246 85.3725 99.3115 85.377C99.281 81.9797 99.2311 78.6373 99.165 75.3594C98.0424 75.3486 96.9144 75.3418 95.7812 75.3418ZM30.8428 68.3789C21.2502 72.9956 14.6305 78.2355 10.7637 83.5576C15.5286 80.9791 21.8516 78.6463 29.4014 76.6523C29.7956 73.8483 30.2769 71.0885 30.8428 68.3789ZM160.882 68.6514C161.422 71.2823 161.882 73.9602 162.261 76.6797C169.423 78.5768 175.477 80.7781 180.138 83.2061C176.316 78.1096 169.962 73.0988 160.882 68.6514ZM137.979 60.5176C138.685 64.3165 139.275 68.2346 139.744 72.2529C145.528 73.0706 150.962 74.0429 155.968 75.1523C155.452 71.9065 154.812 68.7314 154.057 65.6367C149.142 63.6797 143.755 61.9593 137.979 60.5176ZM53.2529 60.5C47.6724 61.8902 42.4542 63.5415 37.6729 65.4141C36.8915 68.5718 36.2296 71.8139 35.6973 75.1299C40.5701 74.053 45.8462 73.105 51.4551 72.3037C51.9341 68.2612 52.5352 64.3204 53.2529 60.5ZM155.131 49.166C156.653 53.0342 157.99 57.067 159.121 61.2412C167.112 64.6867 173.874 68.772 179.055 73.3291C174.739 65.4387 168.096 58.2061 159.49 52.0713C158.086 51.07 156.631 50.1013 155.131 49.166ZM36.5801 49.1191C35.0532 50.0687 33.5743 51.0535 32.1465 52.0713C23.8261 58.0024 17.3396 64.9592 13.0186 72.5449C18.2024 68.1924 24.8452 64.2899 32.6279 60.9893C33.7543 56.8879 35.0762 52.9234 36.5801 49.1191ZM72.3037 56.9883C67.9408 57.5327 63.7147 58.2255 59.6504 59.0527C58.831 63.0533 58.1435 67.2112 57.5977 71.502C61.9171 70.9889 66.4047 70.5602 71.0322 70.2236C71.3694 65.6671 71.7956 61.2463 72.3037 56.9883ZM119.354 57.0527C119.848 61.2922 120.262 65.6927 120.587 70.2275C125.066 70.5542 129.414 70.9667 133.605 71.459C133.07 67.1888 132.393 63.0502 131.586 59.0674C127.653 58.2649 123.568 57.5907 119.354 57.0527ZM104.539 55.7744C104.735 60.1687 104.899 64.7417 105.026 69.4629C108.249 69.547 111.424 69.6738 114.544 69.8428C114.198 65.1887 113.758 60.6906 113.231 56.3789C110.383 56.1142 107.483 55.9104 104.539 55.7744ZM87.0273 55.7578C84.1155 55.8861 81.2469 56.0787 78.4277 56.333C77.889 60.6576 77.4363 65.1702 77.0781 69.8398C80.1692 69.673 83.3144 69.5475 86.5059 69.4639C86.6449 64.7364 86.8196 60.1575 87.0273 55.7578ZM95.5811 55.5674C94.7317 55.5674 93.8852 55.5731 93.042 55.584C92.8307 59.9974 92.6533 64.5992 92.5117 69.3574C93.597 69.3475 94.6871 69.3418 95.7812 69.3418C96.8657 69.3418 97.9458 69.3477 99.0215 69.3574C98.8919 64.6021 98.7254 60.0029 98.5254 55.5918C97.5481 55.5771 96.5666 55.5674 95.5811 55.5674ZM62.9062 12.085C39.3795 21.2367 20.7087 40.0036 11.7637 63.5137C18.7161 54.1187 28.6781 46.0309 40.7344 39.9014C46.555 28.4886 54.1305 18.9577 62.9062 12.085ZM129.585 12.6816C138.046 19.515 145.351 28.8434 150.994 39.9492C162.275 45.699 171.716 53.1653 178.567 61.8125C169.582 39.5938 151.843 21.8047 129.585 12.6816ZM132.274 38.7979C133.945 43.5541 135.408 48.6484 136.636 54.0225C142.086 55.2752 147.248 56.7705 152.062 58.4775C150.504 53.529 148.642 48.8287 146.515 44.4229C142.054 42.2624 137.292 40.3737 132.274 38.7979ZM58.9492 38.9287C54.1155 40.4677 49.5199 42.2969 45.207 44.3809C43.0957 48.7363 41.2447 53.3811 39.6895 58.2686C44.3585 56.6391 49.3502 55.2096 54.6094 54.0039C55.8357 48.6858 57.2904 43.6418 58.9492 38.9287ZM115.724 34.9189C116.81 39.8593 117.762 45.2143 118.563 50.9102C122.528 51.3818 126.394 51.9711 130.145 52.6729C128.732 46.9824 127.048 41.6681 125.134 36.8105C122.073 36.0645 118.933 35.4314 115.724 34.9189ZM75.9805 34.9082C72.609 35.4446 69.3136 36.1144 66.1055 36.9082C64.1988 41.7344 62.5195 47.01 61.1055 52.6562C64.9891 51.9317 68.997 51.3282 73.1094 50.8506C73.9231 45.1728 74.8858 39.8342 75.9805 34.9082ZM103.141 33.5654C103.562 38.5472 103.935 43.9705 104.246 49.7568C107.004 49.8762 109.728 50.0485 112.412 50.2783C111.555 44.4461 110.535 39.0163 109.38 34.0752C107.324 33.8555 105.243 33.685 103.141 33.5654ZM88.4795 33.5654C86.4065 33.6836 84.355 33.8519 82.3271 34.0674C81.1618 38.9987 80.1322 44.4175 79.2617 50.2373C81.917 50.0172 84.61 49.8505 87.3359 49.7383C87.6608 43.9589 88.0457 38.5418 88.4795 33.5654ZM95.8184 33.3574C95.3853 33.3574 94.953 33.359 94.5215 33.3633C94.0798 38.3296 93.687 43.7628 93.3555 49.5801C94.0952 49.5719 94.8372 49.5674 95.5811 49.5674C96.4661 49.5674 97.3483 49.5734 98.2275 49.585C97.9106 43.766 97.5308 38.3312 97.1016 33.3633C96.6747 33.3591 96.2468 33.3574 95.8184 33.3574ZM117.583 11.8096C122.095 17.0136 126.136 23.7756 129.541 31.749C133.775 32.8956 137.863 34.2528 141.782 35.8008C140.849 34.2995 139.883 32.844 138.884 31.4385C132.742 22.7999 125.494 16.1338 117.583 11.8096ZM73.3525 12.2607C65.7845 16.5723 58.8403 23.0388 52.9141 31.3301C51.8944 32.7567 50.9086 34.2349 49.957 35.7607C53.7207 34.2784 57.6404 32.9724 61.6943 31.8594C65.0271 24.0663 68.9656 17.4265 73.3525 12.2607ZM84.3818 10.0781C79.032 13.8966 73.7555 20.4874 69.1006 30.0742C71.8533 29.5 74.6577 29.0121 77.5078 28.6152C79.4971 21.1182 81.8188 14.8304 84.3818 10.0781ZM107.648 10.5898C110.094 15.2805 112.307 21.3905 114.209 28.626C116.899 29.0023 119.549 29.4596 122.152 29.9941C117.728 20.8663 112.736 14.4621 107.648 10.5898ZM100.053 9.59277C100.997 14.1743 101.851 20.2566 102.585 27.5273C104.334 27.6151 106.071 27.7362 107.793 27.8906C105.66 20.3311 103.255 14.5564 100.819 10.7324C100.555 10.3173 100.299 9.9382 100.053 9.59277ZM91.5918 9.77051C91.3859 10.0635 91.1732 10.3793 90.9551 10.7197C88.507 14.5413 86.0858 20.3177 83.9316 27.8828C85.6246 27.7321 87.3314 27.6136 89.0508 27.5273C89.7928 20.3502 90.6507 14.3311 91.5918 9.77051ZM95.8271 21.1543C95.5767 23.0875 95.3357 25.1585 95.1025 27.3594C95.3409 27.3581 95.5795 27.3574 95.8184 27.3574C96.0577 27.3574 96.2972 27.3581 96.5361 27.3594C96.3086 25.1586 96.0726 23.0875 95.8271 21.1543Z" fill="#6A90B4"/>
</mask>
<g mask="url(#mask0_102_31)">
<circle cx="95.5" cy="95.5" r="107.5" fill="url(#paint0_radial_102_31)"/>
</g>
<defs>
<radialGradient id="paint0_radial_102_31" cx="0" cy="0" r="1" gradientUnits="userSpaceOnUse" gradientTransform="translate(95.5 95.5) rotate(89.7191) scale(102.001)">
<stop stop-color="#D2DBEC"/>
<stop offset="0.980769" stop-color="#6A90B4"/>
</radialGradient>
</defs>
</svg>
