<svg width="260" height="94" viewBox="0 0 260 94" fill="none" xmlns="http://www.w3.org/2000/svg">
<path d="M240.5 78C244.997 78.0001 259.983 93.4823 260 93.5H0C2.64651e-05 93.5 19 78 25.5 78C32 78 236 78 240.5 78ZM19.5 88.5H237.5L230.5 80H29.5L19.5 88.5ZM242.5 82.5C240.015 82.5 238 83.1716 238 84C238 84.8284 240.015 85.5 242.5 85.5C244.985 85.5 247 84.8284 247 84C247 83.1716 244.985 82.5 242.5 82.5Z" fill="#6A90B4"/>
<path d="M136.025 1.44652C136.025 1.44652 136.422 0 137.869 0.396987C139.315 0.793974 138.918 2.24049 138.918 2.24049L116.952 82.2809L114.059 81.4869L136.025 1.44652Z" fill="#D2DBEC"/>
<path d="M114.059 81.4869L116.952 82.2809L114.447 85.7413L114.059 81.4869Z" fill="#D2DBEC"/>
</svg>
