<svg width="259" height="210" viewBox="0 0 259 210" fill="none" xmlns="http://www.w3.org/2000/svg">
<path d="M177.434 91.1939C201.139 97.6798 215.098 122.155 208.612 145.86C202.126 169.566 177.651 183.525 153.946 177.039C130.241 170.553 116.281 146.078 122.767 122.372C129.253 98.6671 153.728 84.708 177.434 91.1939ZM175.85 96.9812C155.341 91.3698 134.166 103.447 128.555 123.956C122.943 144.465 135.02 165.64 155.529 171.251C176.039 176.863 197.213 164.786 202.825 144.277C208.436 123.768 196.359 102.593 175.85 96.9812Z" fill="#003859"/>
<ellipse cx="188.135" cy="119.08" rx="10.8021" ry="7.62504" transform="rotate(46.0177 188.135 119.08)" fill="#D2DBEC"/>
<ellipse cx="141.433" cy="155.99" rx="5.22349" ry="2.71248" transform="rotate(46.0177 141.433 155.99)" fill="#D2DBEC"/>
<path d="M104.374 38.0283L68.4831 169.207L6.75197 152.317C3.02303 151.297 0.827213 147.447 1.84747 143.718L34.044 26.0428C35.0643 22.3139 38.9143 20.1181 42.6432 21.1383L104.374 38.0283ZM178.225 88.3003C152.922 81.3771 126.797 96.2773 119.874 121.581C112.951 146.884 127.851 173.009 153.154 179.932C178.458 186.856 204.583 171.955 211.506 146.652C218.429 121.348 203.529 95.2235 178.225 88.3003ZM215.807 89.2519L242.814 96.6413L246.772 82.1731L219.765 74.7837L215.807 89.2519ZM246.163 76.8225C249.892 77.8428 252.088 81.6927 251.067 85.4217L218.871 203.097C217.851 206.826 214.001 209.021 210.272 208.001L69.4476 169.471L105.339 38.2922L246.163 76.8225Z" fill="#6A90B4"/>
<path d="M203.498 45.1918C205.209 44.6228 243.308 55.0471 244.491 56.4078C245.674 57.7686 248.422 76.1449 248.422 76.1449L190.549 60.3105C190.549 60.3105 201.787 45.7608 203.498 45.1918Z" fill="#003859"/>
</svg>
