<svg width="394" height="503" viewBox="0 0 394 503" fill="none" xmlns="http://www.w3.org/2000/svg">
<mask id="path-1-inside-1_6_139" fill="white">
<path d="M351 0C374.748 5.15408e-07 394 19.2518 394 43V460C394 483.748 374.748 503 351 503H183.465C197.652 483.12 206 458.785 206 432.5C206 365.397 151.603 311 84.5 311C51.6613 311 21.8666 324.029 0 345.198V43C0 19.2518 19.2518 5.15408e-07 43 0H351Z"/>
</mask>
<path d="M351 0C374.748 5.15408e-07 394 19.2518 394 43V460C394 483.748 374.748 503 351 503H183.465C197.652 483.12 206 458.785 206 432.5C206 365.397 151.603 311 84.5 311C51.6613 311 21.8666 324.029 0 345.198V43C0 19.2518 19.2518 5.15408e-07 43 0H351Z" fill="#457B9A"/>
<path d="M351 0V-4V0ZM351 503V507V503ZM183.465 503L180.209 500.676L175.696 507H183.465V503ZM0 345.198H-4V354.638L2.78222 348.072L0 345.198ZM43 0V-4V0ZM351 0V4C372.539 4 390 21.4609 390 43H394H398C398 17.0426 376.957 -4 351 -4V0ZM394 43H390V460H394H398V43H394ZM394 460H390C390 481.539 372.539 499 351 499V503V507C376.957 507 398 485.957 398 460H394ZM351 503V499H183.465V503V507H351V503ZM183.465 503L186.721 505.324C201.376 484.788 210 459.645 210 432.5H206H202C202 457.925 193.929 481.452 180.209 500.676L183.465 503ZM206 432.5H210C210 363.188 153.812 307 84.5 307V311V315C149.393 315 202 367.607 202 432.5H206ZM84.5 311V307C50.5816 307 19.8003 320.462 -2.78222 342.324L0 345.198L2.78222 348.072C23.933 327.596 52.741 315 84.5 315V311ZM0 345.198H4V43H0H-4V345.198H0ZM0 43H4C4 21.4609 21.4609 4 43 4V0V-4C17.0426 -4 -4 17.0426 -4 43H0ZM43 0V4H351V0V-4H43V0Z" fill="url(#paint0_linear_6_139)" mask="url(#path-1-inside-1_6_139)"/>
<defs>
<linearGradient id="paint0_linear_6_139" x1="246" y1="0" x2="246" y2="503" gradientUnits="userSpaceOnUse">
<stop stop-color="#232428"/>
<stop offset="1" stop-color="#457B9A"/>
</linearGradient>
</defs>
</svg>
