<svg width="105" height="76" viewBox="0 0 105 76" fill="none" xmlns="http://www.w3.org/2000/svg">
<path d="M31 59C31 67.5604 24.0604 74.5 15.5 74.5C6.93959 74.5 0 67.5604 0 59C0 50.4396 12.5 13 15.5 4C18.5 13 31 50.4396 31 59Z" fill="#D4C9C7"/>
<path d="M95.5097 2.51696L98.966 4.53053L75.9604 55.9381L62.9995 48.3872L95.5097 2.51696Z" fill="#D4C9C7"/>
<path d="M71.8385 56.1938C73.8948 60.719 72.0972 65.9619 67.8233 67.9039C63.5494 69.846 46.0157 70.674 47.5472 65.5844C51.6435 69.7642 56.1028 53.4586 60.3767 51.5165C64.6505 49.5744 69.7822 51.6685 71.8385 56.1938Z" fill="#D4C9C7"/>
</svg>
